<svg width="960" height="960" viewBox="0 0 960 960" fill="none" xmlns="http://www.w3.org/2000/svg">
<g clip-path="url(#clip0_385_969)">
<path fill-rule="evenodd" clip-rule="evenodd" d="M320.912 446.134C321.403 436.16 318.53 426.309 312.753 418.163C308.644 412.346 303.196 407.603 296.869 404.335C290.542 401.066 283.522 399.367 276.4 399.381C266.413 399.382 256.717 402.739 248.866 408.911C241.015 415.084 235.466 423.715 233.108 433.419C230.75 443.123 231.72 453.338 235.863 462.425C240.006 471.512 247.081 478.943 255.954 483.527C264.826 488.111 274.981 489.582 284.79 487.703C294.598 485.825 303.491 480.705 310.041 473.167C316.592 465.629 320.42 456.109 320.912 446.134ZM289.66 407.202C288.872 406.945 288.026 407.376 287.769 408.163C287.512 408.951 287.943 409.798 288.731 410.054C295.479 412.252 301.253 416.728 305.065 422.715C308.877 428.701 310.49 435.827 309.626 442.871C309.526 443.694 310.111 444.442 310.933 444.543C311.755 444.644 312.503 444.059 312.604 443.236C313.552 435.501 311.782 427.677 307.596 421.103C303.41 414.53 297.07 409.615 289.66 407.202Z" fill="#171717"/>
<path d="M845.639 442.913C836.258 444.368 826.392 444.458 817.576 440.934C808.76 437.41 801.207 429.756 799.794 420.375C799.339 417.375 799.494 414.225 798.36 411.418C795.573 404.51 786.515 402.718 779.123 403.642C756.715 406.449 739.114 423.942 717.989 431.927C713.021 433.805 707.699 435.158 702.418 434.552C697.137 433.946 691.895 431.038 689.593 426.252C687.523 421.952 688.068 416.87 689.007 412.185C691.472 400.057 696.297 388.532 703.207 378.265L703.177 378.003C767.35 369.793 861.131 367.794 900.221 416.78L898.646 417.325C883.876 430.878 865.439 439.778 845.639 442.913V442.913Z" fill="#171717"/>
<path d="M644.274 428.13C650.161 488.789 637.054 555.437 589.683 561.899C560.247 565.908 546.283 534.776 540.324 494.299C535.578 462.106 535.901 424.016 537.524 393.015L538.17 393.045C541.29 384.068 548.521 377.07 557.881 375.434C562.589 374.666 567.415 375.142 571.882 376.814C576.35 378.486 580.302 381.297 583.349 384.967C589.69 392.793 591.104 403.335 593.578 413.09C596.052 422.845 600.758 433.29 610.139 436.931C615.532 439.031 621.661 438.456 627.124 436.538C632.587 434.62 637.485 431.448 642.342 428.308L644.274 428.13Z" fill="#171717"/>
<path d="M765.239 676.755C771.712 678.825 777.468 684.824 776.892 691.589L777.286 692.66C776.286 693.033 775.286 693.407 774.297 693.76C700.874 720.137 515.553 722.994 551.906 648.147C551.906 648.147 552.139 636.03 614.626 654.56C641.961 662.668 666.762 665.233 689.109 663.88V663.921C685.615 666.395 685.06 671.757 687.209 675.463C689.358 679.169 693.571 681.289 697.792 681.956C702.013 682.623 706.335 682.026 710.566 681.421C722.055 679.807 733.548 678.188 745.043 676.563C751.768 675.614 758.766 674.685 765.239 676.755Z" fill="#171717"/>
<path d="M158.434 691.69C155.96 684.521 158.626 676.038 164.382 671.11C167.195 668.819 170.513 667.23 174.061 666.473C177.609 665.717 181.287 665.814 184.79 666.758C185.123 666.869 185.456 666.958 185.8 667.041C185.466 666.941 185.133 666.841 184.79 666.758C177.964 664.597 173.39 657.024 174.116 649.858C174.874 642.325 180.831 635.822 188.052 633.549C195.273 631.276 203.401 632.923 209.732 637.074C216.417 641.456 219.002 647.727 223.532 653.826C227.117 658.643 233.408 659.269 238.881 660.774C247.393 663.128 255.91 665.481 264.43 667.833C281.454 672.529 298.483 677.231 315.516 681.94C318.899 682.869 322.416 683.808 325.877 683.212C333.43 681.899 337.712 674.103 343.397 668.953C349.849 663.097 359.412 660.441 367.652 663.268C375.892 666.095 382.012 674.861 380.752 683.485C379.492 692.109 370.108 698.945 361.727 696.562C374.44 700.146 382.791 714.97 379.176 727.674C375.561 740.378 360.555 748.587 347.943 744.674C335.331 740.761 327.575 725.417 332.043 712.986C294.891 708.824 258.15 701.58 222.2 691.327C215.334 689.368 208.023 687.298 201.176 689.327C191.987 692.044 185.635 701.627 176.143 702.96C168.633 704.01 160.9 698.86 158.434 691.69Z" fill="url(#paint0_linear_385_969)"/>
<path d="M176.964 542.601C176.947 542.993 176.789 543.366 176.519 543.651C173.066 547.711 149.871 550.851 121.757 550.851C91.2708 550.851 66.5508 547.151 66.5508 542.601V542.591C66.5918 538.037 91.2918 534.351 121.757 534.351C152.254 534.353 176.964 538.049 176.964 542.601Z" fill="#171717"/>
<path d="M66.5503 542.6C66.5503 547.154 91.2703 550.85 121.756 550.85C149.87 550.85 173.065 547.71 176.518 543.65L177.318 543.781L181.729 556.8C141.621 569.714 98.5277 570.091 58.1993 557.88L57.9473 557.749L65.9473 542.531L66.5533 542.592L66.5503 542.6Z" fill="url(#paint1_linear_385_969)"/>
<path d="M312.753 418.163C318.53 426.309 321.403 436.16 320.912 446.134C320.42 456.109 316.592 465.629 310.041 473.167C303.491 480.705 294.598 485.825 284.79 487.703C274.981 489.582 264.826 488.111 255.954 483.527C247.081 478.943 240.006 471.512 235.863 462.425C231.72 453.338 230.75 443.123 233.108 433.419C235.466 423.715 241.015 415.084 248.866 408.911C256.717 402.739 266.413 399.382 276.4 399.381C283.522 399.367 290.542 401.066 296.869 404.335C303.196 407.603 308.644 412.346 312.753 418.163V418.163Z" stroke="#171717" stroke-width="3" stroke-linecap="round" stroke-linejoin="round"/>
<path d="M312.742 418.174L312.752 418.164C314.388 416.235 489.045 211.072 612.494 335.228C623.077 345.872 631.943 365.906 637.82 389.839C640.883 402.432 643.039 415.229 644.273 428.131C650.16 488.79 637.053 555.438 589.682 561.9C560.246 565.909 546.282 534.777 540.323 494.3C535.577 462.107 535.9 424.017 537.523 393.016C539.3 359.177 542.632 333.79 542.632 333.79" stroke="#171717" stroke-width="3" stroke-linecap="round" stroke-linejoin="round"/>
<path d="M262.141 486.134V486.144C262.111 487.033 260.899 533.393 341.381 534.333C348.581 534.413 356.064 534.171 363.718 533.656C397.89 531.364 435.618 523.656 467.405 515.671C508.949 505.23 540.324 494.304 540.324 494.304" stroke="#171717" stroke-width="3" stroke-linecap="round" stroke-linejoin="round"/>
<path d="M816.234 601.494C789.929 629.557 748.052 660.326 689.109 663.88C666.762 665.233 641.961 662.668 614.626 654.56C552.139 636.03 551.906 648.147 551.906 648.147C515.553 722.994 700.874 720.137 774.297 693.76C775.286 693.407 776.286 693.033 777.286 692.66C850.174 665.16 938.654 583.651 916.862 454.971C914.277 439.692 908.462 427.11 900.22 416.78C861.13 367.794 767.349 369.793 703.176 378C681.191 380.748 659.373 384.699 637.821 389.835" stroke="#171717" stroke-width="3" stroke-linecap="round" stroke-linejoin="round"/>
<path d="M850.568 554.054C850.568 554.054 839.468 576.724 816.244 601.495" stroke="#171717" stroke-width="3" stroke-linecap="round" stroke-linejoin="round"/>
<path d="M858.399 507.248C858.399 507.248 858.884 456.879 809.453 457.354C760.022 457.829 706.346 511.045 699.691 530.06C693.036 549.075 693.986 564.272 693.986 564.272C693.986 564.272 584.699 566.646 576.615 576.148C571.708 581.924 570.132 592.759 569.658 600.393C569.335 605.341 569.486 608.936 569.486 608.936L816.233 601.494H816.243" stroke="#171717" stroke-width="3" stroke-linecap="round" stroke-linejoin="round"/>
<path d="M467.404 515.67C467.404 515.67 405.947 548.883 357.628 578.46C326.428 597.566 300.695 615.147 300.513 621.296C300.038 636.979 569.446 600.383 569.446 600.383" stroke="#171717" stroke-width="3" stroke-linecap="round" stroke-linejoin="round"/>
<path d="M363.717 533.655C363.717 533.655 288.87 567.241 285.317 579.355C281.764 591.469 357.63 578.455 357.63 578.455" stroke="#171717" stroke-width="3" stroke-linecap="round" stroke-linejoin="round"/>
<path d="M184.79 666.759C185.123 666.87 185.456 666.959 185.8 667.042C185.466 666.941 185.133 666.84 184.79 666.759Z" stroke="#171717" stroke-width="3" stroke-linecap="round" stroke-linejoin="round"/>
<path d="M184.79 666.758C181.287 665.814 177.609 665.716 174.061 666.473C170.513 667.23 167.195 668.819 164.382 671.11C158.626 676.038 155.96 684.521 158.434 691.69C160.908 698.859 168.634 704.01 176.146 702.96C185.638 701.627 191.99 692.044 201.179 689.327C208.026 687.298 215.337 689.368 222.203 691.327C258.151 701.579 294.89 708.824 332.04 712.987C327.577 725.418 335.322 740.777 347.94 744.675C360.558 748.573 375.558 740.375 379.173 727.675C382.788 714.975 374.437 700.147 361.724 696.563C370.105 698.946 379.486 692.109 380.749 683.486C382.012 674.863 375.891 666.097 367.649 663.269C359.407 660.441 349.849 663.098 343.394 668.954C337.709 674.104 333.427 681.9 325.874 683.213C322.41 683.813 318.896 682.87 315.513 681.941C298.487 677.235 281.458 672.533 264.427 667.834C255.903 665.482 247.387 663.129 238.878 660.775C233.405 659.275 227.114 658.644 223.529 653.827C218.995 647.727 216.41 641.457 209.729 637.075C203.398 632.924 195.259 631.275 188.049 633.55C180.839 635.825 174.871 642.326 174.113 649.859C173.389 657.024 177.964 664.6 184.79 666.758Z" stroke="#171717" stroke-width="3" stroke-linecap="round" stroke-linejoin="round"/>
<path d="M65.9444 542.531L57.9444 557.749L41.5244 588.983C41.5244 588.983 46.5134 605.018 109.242 605.018C182.312 605.018 193.713 592.194 193.713 592.194L181.729 556.8L177.316 543.783" stroke="#171717" stroke-width="3" stroke-linecap="round" stroke-linejoin="round"/>
<path d="M66.5508 542.593C66.5918 538.039 91.2918 534.353 121.757 534.353C152.257 534.353 176.964 538.053 176.964 542.603C176.947 542.995 176.789 543.368 176.519 543.653C173.066 547.713 149.871 550.853 121.757 550.853C91.2708 550.853 66.5508 547.153 66.5508 542.603V542.593Z" stroke="#171717" stroke-width="3" stroke-linecap="round" stroke-linejoin="round"/>
<path d="M431.759 380.841C431.476 373.399 438.606 366.553 446.038 367.128C453.47 367.703 459.438 375.58 458.014 382.901" stroke="#171717" stroke-width="3" stroke-linecap="round" stroke-linejoin="round"/>
<path d="M482.542 385.041C481.168 376.341 488.55 367.299 497.355 366.905C506.16 366.511 514.32 374.872 513.714 383.668" stroke="#171717" stroke-width="3" stroke-linecap="round" stroke-linejoin="round"/>
<path d="M58.1992 557.88C98.5276 570.091 141.62 569.714 181.729 556.8C181.749 556.79 181.77 556.79 181.79 556.78" stroke="#171717" stroke-width="3" stroke-linecap="round" stroke-linejoin="round"/>
<path d="M538.173 393.05C541.293 384.073 548.524 377.075 557.884 375.439C562.592 374.671 567.418 375.147 571.885 376.819C576.352 378.491 580.305 381.302 583.352 384.972C589.693 392.798 591.107 403.34 593.581 413.095C596.055 422.85 600.761 433.295 610.142 436.936C615.535 439.036 621.664 438.461 627.127 436.543C632.59 434.625 637.488 431.453 642.345 428.313" stroke="#171717" stroke-width="3" stroke-linecap="round" stroke-linejoin="round"/>
<path d="M703.205 378.266C696.295 388.532 691.47 400.058 689.005 412.186C688.066 416.871 687.521 421.951 689.591 426.253C691.891 431.039 697.144 433.937 702.416 434.553C707.688 435.169 713.016 433.806 717.987 431.928C739.112 423.94 756.713 406.45 779.121 403.643C786.513 402.714 795.571 404.511 798.358 411.419C799.489 414.226 799.337 417.376 799.792 420.376C801.205 429.757 808.769 437.421 817.574 440.935C826.379 444.449 836.256 444.369 845.637 442.914C865.436 439.778 883.872 430.878 898.642 417.326" stroke="#171717" stroke-width="3" stroke-linecap="round" stroke-linejoin="round"/>
<path d="M689.109 663.921C685.615 666.395 685.06 671.757 687.209 675.463C689.358 679.169 693.571 681.289 697.792 681.956C702.013 682.623 706.335 682.026 710.566 681.421C722.055 679.807 733.548 678.188 745.043 676.563C751.768 675.614 758.766 674.685 765.243 676.755C771.72 678.825 777.472 684.824 776.896 691.589" stroke="#171717" stroke-width="3" stroke-linecap="round" stroke-linejoin="round"/>
<path d="M134.744 387.561C144.244 383.424 156.487 389.336 159.944 399.107C163.401 408.878 158.281 420.63 149.159 425.552C140.037 430.474 128.032 428.693 120.082 422.042C112.132 415.391 108.265 404.507 109.223 394.186C110.181 383.865 115.642 374.229 123.323 367.269C129.112 362.023 136.713 358.069 144.475 358.949C158.909 360.591 166.565 377.006 179.339 383.924C190.102 389.754 204.332 387.838 213.658 379.91C222.984 371.982 227.182 358.735 224.867 346.716C223.049 337.28 216.102 327.835 206.51 327.235C199.069 326.77 192.033 331.989 188.883 338.747C185.733 345.505 185.963 353.437 187.904 360.636C191.004 372.136 199.231 382.986 210.788 385.871C226.781 389.863 242.534 377.671 251.445 363.798C260.193 350.185 265.245 333.76 263.178 317.711C261.111 301.662 251.209 286.287 236.384 279.803" stroke="#171717" stroke-width="3" stroke-linecap="round" stroke-linejoin="round"/>
<path d="M55.117 469.914L42.248 451.414" stroke="#171717" stroke-width="3" stroke-linecap="round" stroke-linejoin="round"/>
<path d="M40.2227 466.473L52.5227 450.933" stroke="#171717" stroke-width="3" stroke-linecap="round" stroke-linejoin="round"/>
<path d="M665.679 252.727L653.173 234.682" stroke="#171717" stroke-width="3" stroke-linecap="round" stroke-linejoin="round"/>
<path d="M651.667 248.942L669.107 233.642" stroke="#171717" stroke-width="3" stroke-linecap="round" stroke-linejoin="round"/>
<path d="M477.77 710.873L467.078 693.766" stroke="#171717" stroke-width="3" stroke-linecap="round" stroke-linejoin="round"/>
<path d="M462.649 709.662L478.694 692.562" stroke="#171717" stroke-width="3" stroke-linecap="round" stroke-linejoin="round"/>
<path d="M394.489 444.757C397.048 444.757 399.122 442.683 399.122 440.124C399.122 437.565 397.048 435.491 394.489 435.491C391.931 435.491 389.856 437.565 389.856 440.124C389.856 442.683 391.931 444.757 394.489 444.757Z" stroke="#171717" stroke-width="3" stroke-linecap="round" stroke-linejoin="round"/>
<path d="M361.047 469.588C362.852 469.588 364.314 468.125 364.314 466.321C364.314 464.516 362.852 463.054 361.047 463.054C359.243 463.054 357.78 464.516 357.78 466.321C357.78 468.125 359.243 469.588 361.047 469.588Z" stroke="#171717" stroke-width="3" stroke-linecap="round" stroke-linejoin="round"/>
<path d="M399.717 494.654C403.325 494.654 406.251 491.729 406.251 488.12C406.251 484.511 403.325 481.586 399.717 481.586C396.108 481.586 393.183 484.511 393.183 488.12C393.183 491.729 396.108 494.654 399.717 494.654Z" stroke="#171717" stroke-width="3" stroke-linecap="round" stroke-linejoin="round"/>
<path d="M431.747 266.793V217.372" stroke="#171717" stroke-width="3" stroke-linecap="round" stroke-linejoin="round"/>
<path d="M393.182 273.446L354.691 215.236" stroke="#171717" stroke-width="3" stroke-linecap="round" stroke-linejoin="round"/>
<path d="M369.423 295.337L350.415 288.179" stroke="#171717" stroke-width="3" stroke-linecap="round" stroke-linejoin="round"/>
<path d="M752.382 257.17C734.81 266.651 723.193 286.95 725.542 306.778C727.891 326.606 745.069 344.131 764.999 345.354C784.929 346.577 804.721 329.989 805.574 310.041C805.746 308.484 805.492 306.909 804.841 305.484C802.447 301.099 795.625 302.795 791.795 306.003C780.967 315.075 777.666 331.978 784.284 344.457C790.902 356.936 806.749 363.685 820.333 359.808C827.725 357.699 834.033 352.963 840.213 348.384C846.393 343.805 852.825 339.189 860.298 337.384C867.771 335.579 876.608 337.253 881.228 343.398C885.848 349.543 883.734 360.239 876.37 362.447" stroke="#171717" stroke-width="3" stroke-linecap="round" stroke-linejoin="round"/>
<g opacity="0.1">
<path d="M267.9 486.423C259.789 502.355 273.2 520.21 287.743 526.711C306.118 534.926 327.421 533.241 347.037 532.395C388.933 530.638 430.548 524.695 471.261 514.655C494.129 508.975 516.664 502.026 538.761 493.84C543.152 492.216 546.135 487.964 544.818 483.172C543.659 478.956 538.562 475.472 534.15 477.115C498.515 490.411 461.755 500.469 424.316 507.168C405.916 510.449 387.283 513.09 368.662 514.72C350.076 516.346 330.835 518.076 312.186 516.712C293.74 515.364 278.824 505.97 274.667 487.312C273.99 484.276 269.327 483.621 267.898 486.428L267.9 486.423Z" fill="#171717"/>
</g>
<g opacity="0.1">
<path d="M302.382 623.748C308.64 628.239 318.274 626.568 325.473 626.201C334.011 625.766 342.492 625.22 351.018 624.462C368.044 622.95 385.064 621.362 402.065 619.584C436.404 615.998 470.7 612.029 504.953 607.677C524.264 605.225 543.56 602.654 562.841 599.964C567.183 599.364 569.557 593.816 568.505 589.989C567.224 585.328 562.882 583.7 558.529 584.325C491.176 593.992 423.611 602.008 355.929 608.99C346.471 609.966 336.887 610.526 327.515 612.137C319.315 613.548 308.063 612.775 301.794 619.184C301.488 619.503 301.258 619.886 301.119 620.305C300.981 620.724 300.938 621.169 300.995 621.607C301.051 622.045 301.205 622.465 301.445 622.835C301.685 623.206 302.005 623.518 302.382 623.748V623.748Z" fill="#171717"/>
</g>
<g opacity="0.1">
<path d="M570.938 606.016C577.181 612.831 591.855 609.965 600.104 609.635C610.077 609.235 620.046 608.589 630.016 608.089C650.624 607.057 671.237 606.114 691.853 605.262C733.086 603.556 774.332 602.209 815.59 601.222C826.371 600.962 826.411 584.175 815.59 584.441C774.001 585.459 732.423 586.838 690.856 588.576C670.24 589.442 649.627 590.397 629.019 591.439C618.719 591.961 608.389 592.317 598.11 593.139C589.41 593.833 575.942 592.612 570.219 600.45C568.994 602.129 569.656 604.619 570.938 606.017V606.016Z" fill="#171717"/>
</g>
<g opacity="0.1">
<path d="M286.113 581.948C296.287 587.356 309.707 586.864 320.949 586.277C326.97 585.963 332.988 585.457 338.971 584.703C345.16 583.923 351.892 583.457 357.562 580.777C364.288 577.596 360.422 567.991 354.013 567.677C348.477 567.404 342.485 569.307 337.002 570.157C331.354 571.032 325.692 571.745 320.002 572.238C314.589 572.706 309.222 573.446 303.796 573.723C297.82 574.029 292.446 574.403 286.812 576.639C284.666 577.491 283.712 580.67 286.118 581.951L286.113 581.948Z" fill="#171717"/>
</g>
</g>
<defs>
<linearGradient id="paint0_linear_385_969" x1="269.213" y1="632.523" x2="269.066" y2="745.04" gradientUnits="userSpaceOnUse">
<stop stop-color="#B7B7B7"/>
<stop offset="1" stop-color="#6F6F6F"/>
</linearGradient>
<linearGradient id="paint1_linear_385_969" x1="119.838" y1="542.531" x2="119.826" y2="566.638" gradientUnits="userSpaceOnUse">
<stop stop-color="#B7B7B7"/>
<stop offset="1" stop-color="#6F6F6F"/>
</linearGradient>
<clipPath id="clip0_385_969">
<rect width="884" height="535" fill="white" transform="translate(38 213)"/>
</clipPath>
</defs>
</svg>
