<svg width="960" height="960" viewBox="0 0 960 960" fill="none" xmlns="http://www.w3.org/2000/svg">
<g clip-path="url(#clip0_385_970)">
<path d="M558.506 329.9C561.994 363.461 561.322 397.324 556.506 430.719L556.384 430.77C547.651 426.858 538.491 423.979 529.09 422.191L528.744 422.069C539.581 391.655 549.502 360.932 558.506 329.9Z" fill="url(#paint0_linear_385_970)"/>
<path d="M476.188 574.56L506.565 561.279C504.727 574.631 500.927 587.638 495.289 599.879L494.943 600.133C488.684 591.605 482.432 583.081 476.188 574.56Z" fill="#171717"/>
<path d="M387.112 147.146C409.525 242.786 416.102 341.454 406.58 439.222L404.443 439.456C401.533 439.454 398.64 439.896 395.864 440.77L395.793 440.536C383.823 343.284 380.652 245.15 386.319 147.329L387.112 147.146Z" fill="url(#paint1_linear_385_970)"/>
<path d="M456.791 414.605C460.607 296.16 444.844 176.372 403.091 65.4681C398.643 53.6531 390.207 39.6601 377.731 41.5531C371.258 42.5401 366.18 47.9651 363.738 54.0401C361.296 60.1151 361.038 66.8011 360.817 73.3351C356.38 199.535 352.259 328.318 387.958 449.449" stroke="#171717" stroke-width="4" stroke-linecap="round" stroke-linejoin="round"/>
<path d="M406.58 439.222C416.102 341.453 409.525 242.785 387.112 147.145C385.413 139.91 383.625 132.695 381.749 125.5" stroke="#171717" stroke-width="4" stroke-linecap="round" stroke-linejoin="round"/>
<path d="M386.319 147.328C380.652 245.15 383.823 343.283 395.793 440.535" stroke="#171717" stroke-width="4" stroke-linecap="round" stroke-linejoin="round"/>
<path d="M498.464 414.472C494.627 398.797 488.91 383.644 481.439 369.34C481.856 379.923 482.269 390.507 482.68 401.09C478.996 396.918 475.309 392.746 471.618 388.573L471.282 406.616C469.833 403.193 467.274 400.357 464.016 398.567C461.961 404.052 459.902 409.531 457.839 415.002C457.639 415.561 457.422 416.131 457.208 416.691" stroke="#171717" stroke-width="4" stroke-linecap="round" stroke-linejoin="round"/>
<path d="M388 449.439C388 449.449 387.99 449.449 387.99 449.459C368.919 494.359 348.84 537.242 329.77 582.141C337.819 574.895 345.872 567.65 353.929 560.404C346.673 587.453 339.42 614.509 332.171 641.572C341.198 629.564 350.221 617.564 359.241 605.572C350.825 627.223 344.981 649.787 341.827 672.8C349.011 666.134 356.188 659.461 363.36 652.783C357.786 667.877 352.213 682.97 346.64 698.062C352.918 693.391 359.197 688.713 365.477 684.029C358.877 698.845 355.652 714.942 356.033 731.156C359.371 716.461 377.557 709.826 392.404 712.356C393.483 712.539 394.551 712.756 395.604 713.007C409.138 716.162 421.177 724.1 434.071 729.483C459.971 740.283 489.614 740.504 516.592 732.811C543.57 725.118 568 709.846 588.832 691.05C592.892 693.36 596.955 695.667 601.023 697.97C606.763 701.227 612.499 704.484 618.232 707.74C617.346 694.439 616.467 681.139 615.596 667.84C620.846 672.918 626.101 677.996 631.359 683.074C626.725 668.803 624.759 653.8 625.559 638.816C631.563 641.992 637.57 645.17 643.581 648.352C636.273 629.33 632.234 609.209 631.634 588.839L649.647 606.669C641.343 587.659 633.038 568.646 624.734 549.629C631.667 551.705 638.597 553.775 645.525 555.837C631.29 537.22 618.776 517.349 608.137 496.467C613.143 498.879 618.153 501.288 623.167 503.692C607.618 479.045 589.951 459.312 569.69 438.359" stroke="#171717" stroke-width="4" stroke-linecap="round" stroke-linejoin="round"/>
<path d="M569.69 438.357C574.004 380.005 578.312 321.66 582.614 263.32C583.163 255.932 583.703 248.42 583.184 241.054C582.945 237.041 582.301 233.062 581.26 229.178C578.238 218.147 570.585 207.678 559.584 204.49C545.53 200.429 530.357 209.619 522.766 222.126C515.175 234.633 513.4 249.7 511.795 264.257C506.295 314.183 500.784 364.357 499.431 414.503C498.607 440.906 499.239 467.333 501.324 493.666C511.022 470.026 520.161 446.162 528.739 422.074C539.58 391.657 549.502 360.932 558.506 329.9C567.034 300.542 574.727 270.962 581.586 241.161" stroke="#171717" stroke-width="4" stroke-linecap="round" stroke-linejoin="round"/>
<path d="M556.5 430.724C561.316 397.328 561.987 363.465 558.5 329.905C558.479 329.743 558.469 329.59 558.449 329.427" stroke="#171717" stroke-width="4" stroke-linecap="round" stroke-linejoin="round"/>
<path d="M506.565 561.279L476.188 574.56C482.436 583.088 488.687 591.612 494.943 600.133C495.055 600.286 495.177 600.449 495.289 600.601" stroke="#171717" stroke-width="4" stroke-linecap="round" stroke-linejoin="round"/>
<path d="M495.289 599.879C500.928 587.638 504.728 574.631 506.565 561.279" stroke="#171717" stroke-width="4" stroke-linecap="round" stroke-linejoin="round"/>
<path d="M495.289 600.6C497.089 613.077 497.518 624.953 499.125 637.348C499.237 638.264 499.37 639.19 499.502 640.116L515.408 689.665" stroke="#171717" stroke-width="4" stroke-linecap="round" stroke-linejoin="round"/>
<path d="M431.207 630.347C445.655 637.59 461.694 641.08 477.846 640.493C485.035 640.253 492.174 639.198 499.125 637.349C501.568 636.697 503.98 635.947 506.361 635.1C511.407 633.291 516.286 631.046 520.944 628.393C538.86 618.228 553.058 602.604 561.467 583.8" stroke="#171717" stroke-width="4" stroke-linecap="round" stroke-linejoin="round"/>
<path d="M521.188 628.831L534.082 679.612L515.408 689.666H482.365L477.846 640.493" stroke="#171717" stroke-width="4" stroke-linecap="round" stroke-linejoin="round"/>
<path d="M377.628 755.6C366.576 745.108 348.028 744.233 335.456 752.842C322.884 761.451 316.986 778.314 320.436 793.162C323.56 806.646 334.51 818.45 348.116 820.995C349.734 821.297 351.376 821.454 353.021 821.463C365.212 821.544 377.521 813.932 381.23 802.3C383.194 796.154 382.706 789.081 379.195 783.657C376.787 779.985 373.103 777.335 368.856 776.218C366.818 775.676 364.687 775.578 362.607 775.933C356.247 777.042 350.894 783.087 351.25 789.533" stroke="#171717" stroke-width="4" stroke-linecap="round" stroke-linejoin="round"/>
<path d="M368.937 775.9C371.837 769.133 374.74 762.369 377.648 755.608C383.488 741.972 389.337 728.336 395.193 714.699" stroke="#171717" stroke-width="4" stroke-linecap="round" stroke-linejoin="round"/>
<path d="M353.011 821.829C351.576 825.9 350.143 829.971 348.711 834.041" stroke="#171717" stroke-width="4" stroke-linecap="round" stroke-linejoin="round"/>
<path d="M615.84 731.2C609.281 733.176 603.015 736.017 597.206 739.646C589.554 744.833 583.051 751.539 578.101 759.348C573.152 767.156 569.862 775.9 568.437 785.034C567.551 790.865 567.521 797.113 570.258 802.334C573.881 809.254 581.911 813.09 589.706 813.304C597.501 813.518 605.093 810.597 611.88 806.761C623.384 800.037 633.274 790.874 640.854 779.915C645.649 773.153 649.214 765.6 651.387 757.6C652.498 753.356 653.029 748.981 652.963 744.594C652.556 725.305 632.621 725.956 615.84 731.2Z" stroke="#171717" stroke-width="4" stroke-linecap="round" stroke-linejoin="round"/>
<path d="M615.606 730.444C610.579 719.911 605.555 709.374 600.535 698.835" stroke="#171717" stroke-width="4" stroke-linecap="round" stroke-linejoin="round"/>
<path d="M641.2 780.156C647.75 801.388 651.597 823.362 652.649 845.556" stroke="#171717" stroke-width="4" stroke-linecap="round" stroke-linejoin="round"/>
<path d="M429.243 887.977C429.643 889.106 430.017 890.256 430.373 891.406C393.413 905.772 353.781 911.966 314.2 909.561C307.86 909.174 293.43 908.94 289.553 902.561C286.225 897.097 292.942 884.936 295.211 879.705C302.019 864.033 312.511 849.46 327.711 841.055C334.231 837.478 341.355 835.135 348.725 834.145C360.35 832.564 372.185 833.946 383.132 838.164C385.671 839.137 388.148 840.262 390.551 841.533C408.788 851.168 422.415 868.478 429.243 887.977Z" stroke="#171717" stroke-width="4" stroke-linecap="round" stroke-linejoin="round"/>
<path d="M576.345 862.23C584.555 855.427 593.949 850.196 604.056 846.8C619.636 841.731 636.463 842.012 651.865 847.6C660.637 850.783 668.541 855.976 674.945 862.763C681.945 870.294 686.781 879.463 691.085 888.856C692.215 891.319 693.304 893.802 694.393 896.275C695.807 899.48 697.193 903.317 695.37 906.309C694.149 908.293 691.849 909.29 689.67 910.115C659.889 921.295 627.643 924.234 596.331 918.622C583.58 916.353 562.473 913.188 552.694 903.968C549.305 900.762 549.274 896.6 550.913 892.268C553.813 884.615 561.904 876.443 565.821 872.18C569.09 868.619 572.606 865.294 576.345 862.23V862.23Z" stroke="#171717" stroke-width="4" stroke-linecap="round" stroke-linejoin="round"/>
<path d="M429.243 887.977C469.8 889.849 509.1 890.134 549.652 892" stroke="#171717" stroke-width="4" stroke-linecap="round" stroke-linejoin="round"/>
<path d="M575.643 861.385C573.143 834.753 570.27 806.992 555.931 784.41C541.831 762.215 517.107 747.296 490.964 744.426C464.821 741.556 437.751 750.532 418 767.883C398.249 785.234 385.914 810.594 383.675 836.799" stroke="#171717" stroke-width="4" stroke-linecap="round" stroke-linejoin="round"/>
<path d="M651.947 757.737C656.008 752.859 660.672 748.516 665.827 744.813C668.443 742.941 671.76 741.17 674.727 742.391C677.607 743.582 678.797 747.235 678.187 750.291C677.577 753.347 675.612 755.939 673.709 758.402C681.959 753.055 690.921 748.896 700.331 746.047C707.731 743.809 716.023 742.465 722.964 745.885C727.339 748.032 730.964 752.937 729.527 757.598C728.744 759.63 727.476 761.44 725.833 762.869C719.901 768.781 713.091 773.739 705.643 777.569C716.086 776.843 726.536 778.879 735.943 783.472C745.35 788.065 753.383 795.052 759.233 803.733C761.675 807.447 763.68 812.352 761.39 816.148C759.843 818.713 756.78 819.924 753.87 820.595C745.384 822.539 736.487 821.493 728.683 817.634C735.61 821.869 741.167 828.014 744.686 835.331C748.204 842.648 749.535 850.825 748.517 858.88C747.764 864.141 745.678 869.646 741.139 872.394C736.844 874.994 731.227 874.501 726.678 872.384C722.129 870.267 718.404 866.746 714.771 863.276C717.631 868.028 720.552 872.944 721.427 878.419C722.302 883.894 720.633 890.162 715.982 893.185C712.431 895.495 707.76 895.515 703.72 894.243C699.68 892.971 696.098 890.559 692.597 888.168" stroke="#171717" stroke-width="4" stroke-linecap="round" stroke-linejoin="round"/>
<path d="M526.887 534.149C527.091 521.458 527.291 508.764 527.487 496.068" stroke="#171717" stroke-width="4" stroke-linecap="round" stroke-linejoin="round"/>
<path d="M444.528 541.343L440.9 495.366" stroke="#171717" stroke-width="4" stroke-linecap="round" stroke-linejoin="round"/>
<path d="M395.62 440.84C395.7 440.811 395.781 440.788 395.864 440.769C398.64 439.896 401.533 439.453 404.443 439.456C405.064 439.456 405.685 439.476 406.305 439.517" stroke="#171717" stroke-width="4" stroke-linecap="round" stroke-linejoin="round"/>
<path d="M556.379 430.775C547.646 426.863 538.486 423.984 529.085 422.196" stroke="#171717" stroke-width="4" stroke-linecap="round" stroke-linejoin="round"/>
<path d="M274.565 691.929L264.065 672.048" stroke="#171717" stroke-width="4" stroke-linecap="round" stroke-linejoin="round"/>
<path d="M232.851 676.178L198.367 621.586" stroke="#171717" stroke-width="4" stroke-linecap="round" stroke-linejoin="round"/>
<path d="M218.373 726.532L202.822 701.949" stroke="#171717" stroke-width="4" stroke-linecap="round" stroke-linejoin="round"/>
<path d="M215.8 791L187.07 747.9" stroke="#171717" stroke-width="4" stroke-linecap="round" stroke-linejoin="round"/>
<path d="M241.6 841.044L260.3 829.591" stroke="#171717" stroke-width="4" stroke-linecap="round" stroke-linejoin="round"/>
<path d="M253.173 845.571L241.673 824.024" stroke="#171717" stroke-width="4" stroke-linecap="round" stroke-linejoin="round"/>
<path d="M293.416 385.708C275.532 391.608 262.116 407.336 255.269 424.879C248.422 442.422 247.4 461.69 248.069 480.509C248.442 491.04 249.454 501.995 254.906 511.009C260.358 520.023 271.49 526.437 281.536 523.252C291.582 520.067 296.369 504.888 288.142 498.302C281.083 492.652 269.509 497.01 265.489 505.108C261.469 513.206 263.429 523.125 267.607 531.143C271.785 539.161 277.957 545.943 282.894 553.52C287.831 561.097 291.615 570.095 290.094 579.008C288.212 590.043 276.342 598.955 265.574 595.893C254.806 592.831 249.984 576.729 258.39 569.336" stroke="#171717" stroke-width="4" stroke-linecap="round" stroke-linejoin="round"/>
<path d="M739.2 523.9C741.066 511.584 758.293 506.907 769.037 513.212C779.781 519.517 784.818 532.287 787.537 544.442C792.295 565.762 792.266 587.871 787.454 609.179C785.047 619.794 781.12 630.657 772.886 637.779C764.652 644.901 751.093 646.786 743.116 639.379C734.908 631.76 737.145 616.059 747.154 611.036C757.163 606.013 771.089 613.601 772.292 624.736C773.842 639.067 758.739 648.682 749.621 659.847C744.073 666.64 740.382 675.247 740.792 684.01C741.202 692.773 746.207 701.51 754.213 705.095C762.219 708.68 772.905 705.981 777.232 698.353C781.559 690.725 777.437 679.287 768.917 677.205" stroke="#171717" stroke-width="4" stroke-linecap="round" stroke-linejoin="round"/>
<path d="M681.129 352.6L695.547 333.963" stroke="#171717" stroke-width="4" stroke-linecap="round" stroke-linejoin="round"/>
<path d="M697.599 349.474L682.979 333.909" stroke="#171717" stroke-width="4" stroke-linecap="round" stroke-linejoin="round"/>
<path d="M625.315 170.307C626.731 164.782 629.726 159.79 633.935 155.94" stroke="#171717" stroke-width="4" stroke-linecap="round" stroke-linejoin="round"/>
<path d="M633.808 166.165L622.337 157.516" stroke="#171717" stroke-width="4" stroke-linecap="round" stroke-linejoin="round"/>
<path d="M294.926 48.7695C299.84 60.2117 301.854 72.6895 300.789 85.0965C299.725 97.5034 295.616 109.456 288.826 119.895C285.555 124.813 281.442 129.523 275.909 131.59C270.376 133.657 263.198 132.246 260.23 127.138C256.73 121.107 261.312 112.501 268.119 110.974C274.926 109.447 282.165 114.109 284.812 120.563C287.459 127.017 286.077 134.623 282.498 140.611C278.727 146.921 272.398 151.85 265.151 153.105C258.311 154.29 249.28 153.305 246.462 159.648C243.816 165.606 249.768 171.636 255.048 175.461C259.325 178.561 264.005 181.792 269.286 181.736C274.567 181.68 279.998 176.502 278.175 171.545" stroke="#171717" stroke-width="4" stroke-linecap="round" stroke-linejoin="round"/>
<path d="M240.438 282.252L231.814 270.762" stroke="#171717" stroke-width="4" stroke-linecap="round" stroke-linejoin="round"/>
<path d="M228.687 283.777C230.286 277.958 233.907 272.9 238.9 269.51" stroke="#171717" stroke-width="4" stroke-linecap="round" stroke-linejoin="round"/>
<path d="M540.965 859.146L535.924 853.771" stroke="#171717" stroke-width="4" stroke-linecap="round" stroke-linejoin="round"/>
<path d="M510.686 841.571C511.955 839.124 513.687 836.947 515.786 835.159" stroke="#171717" stroke-width="4" stroke-linecap="round" stroke-linejoin="round"/>
<path d="M539.475 813.941L533.369 807.835" stroke="#171717" stroke-width="4" stroke-linecap="round" stroke-linejoin="round"/>
<path d="M510.07 784.887L515.659 777.587" stroke="#171717" stroke-width="4" stroke-linecap="round" stroke-linejoin="round"/>
<path d="M478.207 771.366L470.554 765.4" stroke="#171717" stroke-width="4" stroke-linecap="round" stroke-linejoin="round"/>
<path d="M489.244 812.47C487.487 809.818 485.125 807.622 482.352 806.063" stroke="#171717" stroke-width="4" stroke-linecap="round" stroke-linejoin="round"/>
<path d="M440.7 793.825L446.965 786.418" stroke="#171717" stroke-width="4" stroke-linecap="round" stroke-linejoin="round"/>
<path d="M457.111 826L449.855 834.615" stroke="#171717" stroke-width="4" stroke-linecap="round" stroke-linejoin="round"/>
<path d="M418.032 825.466L413.493 819.166" stroke="#171717" stroke-width="4" stroke-linecap="round" stroke-linejoin="round"/>
<path d="M484.879 860.994L477.336 853.452" stroke="#171717" stroke-width="4" stroke-linecap="round" stroke-linejoin="round"/>
<path d="M448.6 877.516L453.628 872.128" stroke="#171717" stroke-width="4" stroke-linecap="round" stroke-linejoin="round"/>
<path d="M512.492 878.907L518.035 873.684" stroke="#171717" stroke-width="4" stroke-linecap="round" stroke-linejoin="round"/>
<path d="M512.348 125.37L513.884 133.816C513.93 134.07 513.897 134.333 513.789 134.569C513.681 134.804 513.504 135.001 513.281 135.133C513.058 135.265 512.8 135.325 512.542 135.306C512.284 135.287 512.038 135.189 511.837 135.026L505.178 129.607C504.983 129.449 504.747 129.353 504.498 129.329C504.249 129.306 503.998 129.356 503.778 129.475L496.22 133.546C495.992 133.669 495.731 133.719 495.474 133.689C495.216 133.66 494.974 133.552 494.78 133.381C494.585 133.209 494.448 132.982 494.387 132.731C494.326 132.479 494.343 132.214 494.437 131.973L497.532 123.965C497.622 123.731 497.641 123.476 497.587 123.232C497.532 122.987 497.407 122.765 497.226 122.592L491.018 116.661C490.83 116.482 490.702 116.25 490.65 115.996C490.599 115.742 490.626 115.478 490.729 115.24C490.832 115.002 491.006 114.802 491.226 114.666C491.447 114.529 491.704 114.464 491.963 114.479L500.535 114.949C500.785 114.962 501.034 114.902 501.249 114.774C501.465 114.646 501.638 114.458 501.747 114.232L505.469 106.496C505.581 106.262 505.762 106.069 505.988 105.941C506.213 105.814 506.473 105.759 506.731 105.783C506.989 105.808 507.233 105.911 507.43 106.078C507.628 106.246 507.769 106.47 507.836 106.721L510.036 115.021C510.1 115.263 510.234 115.481 510.422 115.646C510.61 115.812 510.842 115.918 511.091 115.952L519.6 117.1C519.856 117.135 520.096 117.247 520.287 117.422C520.477 117.598 520.61 117.827 520.666 118.08C520.723 118.333 520.7 118.597 520.602 118.836C520.504 119.076 520.335 119.28 520.118 119.421L512.907 124.08C512.697 124.216 512.532 124.411 512.432 124.64C512.333 124.87 512.303 125.123 512.348 125.37V125.37Z" fill="#171717"/>
<path d="M717.227 459.33L713.985 469.162C713.887 469.459 713.701 469.719 713.451 469.906C713.201 470.094 712.899 470.2 712.587 470.211C712.275 470.222 711.966 470.137 711.704 469.967C711.441 469.797 711.237 469.551 711.119 469.262L707.189 459.683C707.075 459.403 706.88 459.164 706.629 458.995C706.378 458.826 706.083 458.736 705.781 458.735L695.428 458.69C695.116 458.688 694.811 458.591 694.556 458.411C694.3 458.232 694.106 457.978 693.999 457.684C693.892 457.391 693.877 457.071 693.957 456.769C694.037 456.467 694.208 456.197 694.446 455.995L702.341 449.295C702.572 449.1 702.739 448.84 702.823 448.55C702.906 448.259 702.901 447.951 702.809 447.663L699.652 437.802C699.557 437.504 699.555 437.185 699.647 436.886C699.739 436.588 699.921 436.324 700.167 436.132C700.413 435.939 700.712 435.827 701.024 435.81C701.336 435.792 701.645 435.871 701.911 436.035L710.721 441.475C710.979 441.634 711.278 441.714 711.58 441.703C711.883 441.692 712.176 441.592 712.421 441.415L720.821 435.365C721.075 435.183 721.378 435.083 721.69 435.078C722.001 435.074 722.307 435.164 722.566 435.339C722.825 435.513 723.024 435.762 723.138 436.053C723.251 436.343 723.272 436.662 723.199 436.965L720.748 447.024C720.676 447.318 720.692 447.627 720.796 447.912C720.899 448.197 721.085 448.445 721.329 448.624L729.679 454.746C729.931 454.931 730.121 455.188 730.222 455.484C730.323 455.78 730.331 456.099 730.245 456.4C730.16 456.7 729.983 456.967 729.741 457.165C729.499 457.362 729.202 457.48 728.89 457.504L718.566 458.281C718.264 458.303 717.976 458.415 717.737 458.602C717.499 458.789 717.321 459.042 717.227 459.33V459.33Z" fill="#171717"/>
<path d="M184.643 455.501L182.18 462.971C182.106 463.196 181.964 463.393 181.775 463.536C181.585 463.679 181.356 463.76 181.119 463.768C180.881 463.777 180.647 463.712 180.448 463.584C180.248 463.455 180.093 463.268 180.003 463.049L177.017 455.771C176.93 455.558 176.782 455.377 176.592 455.249C176.401 455.12 176.177 455.052 175.948 455.051L168.082 455.017C167.845 455.015 167.613 454.942 167.419 454.805C167.225 454.668 167.077 454.475 166.996 454.252C166.915 454.029 166.904 453.787 166.965 453.557C167.025 453.328 167.155 453.122 167.336 452.969L173.336 447.881C173.511 447.732 173.638 447.535 173.701 447.314C173.764 447.094 173.761 446.859 173.691 446.641L171.291 439.15C171.219 438.924 171.218 438.681 171.287 438.454C171.357 438.227 171.495 438.027 171.682 437.881C171.869 437.735 172.096 437.649 172.333 437.636C172.57 437.623 172.805 437.682 173.007 437.807L179.7 441.94C179.895 442.06 180.122 442.12 180.351 442.112C180.581 442.104 180.803 442.028 180.989 441.894L187.373 437.294C187.566 437.155 187.796 437.078 188.033 437.074C188.271 437.071 188.504 437.14 188.701 437.272C188.898 437.405 189.049 437.595 189.135 437.816C189.221 438.038 189.236 438.28 189.18 438.511L187.317 446.154C187.263 446.377 187.276 446.611 187.354 446.826C187.433 447.042 187.574 447.229 187.759 447.365L194.103 452.016C194.294 452.156 194.438 452.352 194.515 452.576C194.591 452.801 194.597 453.044 194.532 453.272C194.467 453.5 194.333 453.703 194.149 453.853C193.965 454.003 193.74 454.093 193.503 454.111L185.659 454.702C185.429 454.719 185.21 454.804 185.029 454.947C184.849 455.089 184.714 455.282 184.643 455.501V455.501Z" fill="#171717"/>
<g opacity="0.1">
<path d="M372.584 40.5764C365.591 51.5764 362.87 63.5354 361.356 76.3314C359.833 89.2084 358.778 102.226 358.072 115.172C356.603 142.108 356.53 169.016 356.695 195.952C357.021 249.266 359.405 302.411 366.02 355.343C369.797 385.562 374.399 415.632 380.112 445.543C381.627 453.475 393.737 450.117 392.226 442.204C372.665 339.773 364.743 233.787 373.351 129.75C375.681 101.601 376.574 72.6214 383.293 45.0874C384.878 38.5874 376.167 34.9344 372.584 40.5724V40.5764Z" fill="#171717"/>
</g>
<g opacity="0.1">
<path d="M388.26 450.482C384.11 454.048 382.233 457.747 379.86 462.643C377.569 467.363 375.152 471.966 373.004 476.764C368.69 486.399 364.369 496.02 360.294 505.764C356.242 515.448 352.66 525.305 348.773 535.055C344.902 544.764 340.273 554.329 337.216 564.336C335.016 571.536 345.761 576.126 349.407 569.475C354.437 560.3 358.058 550.31 362.307 540.762C366.576 531.173 371.134 521.728 375.242 512.062C379.372 502.346 383.247 492.537 387.136 482.722C389.073 477.835 390.682 472.893 392.462 467.957C394.316 462.819 395.652 458.887 395.305 453.399C395.28 452.595 395.023 451.815 394.565 451.154C394.108 450.492 393.469 449.976 392.726 449.668C391.982 449.36 391.166 449.273 390.374 449.418C389.583 449.562 388.85 449.932 388.263 450.482H388.26Z" fill="#171717"/>
</g>
<g opacity="0.1">
<path d="M550.84 203.001C535.814 207.351 525.035 218.321 518.84 232.487C511.291 249.74 510.289 268.209 508.973 286.739C507.514 307.289 505.773 327.811 505.285 348.409C504.797 369.007 503.495 389.509 502.085 410.079C501.31 421.355 500.442 432.626 499.61 443.898C499.171 449.863 498.81 455.833 498.438 461.798C498.068 467.689 497.164 473.823 497.806 479.698C498.268 483.935 504.506 485.498 505.724 480.769C508.009 471.881 507.764 461.969 508.487 452.841C509.248 443.233 509.851 433.612 510.508 423.996C511.843 404.437 512.908 384.796 515.088 365.309C517.242 346.071 519.247 326.931 520.619 307.618C521.925 289.225 522.092 270.254 525.475 252.098C528.502 235.851 536.489 217.449 553.015 210.857C557.761 208.964 556.015 201.495 550.847 202.992L550.84 203.001Z" fill="#171717"/>
</g>
<g opacity="0.1">
<path d="M398.3 716.109C389.368 721.738 385.115 732.815 380.854 742.044C376.315 751.877 370.016 762.665 368.662 773.484C367.64 781.654 379.428 783.336 383.162 777.411C385.936 773.011 387.291 767.44 389.043 762.556C390.816 757.611 392.525 752.67 394.477 747.788C398.108 738.704 403.841 728.934 403.166 718.901C403.01 716.57 400.502 714.72 398.3 716.109V716.109Z" fill="#171717"/>
</g>
<g opacity="0.1">
<path d="M355.108 820.049L354.45 820.702L356.844 819.307C354.439 820.228 352.463 822.01 351.299 824.307C350.723 825.385 350.254 826.517 349.899 827.687C349.585 828.736 349.486 829.837 349.606 830.925C349.726 832.013 350.064 833.065 350.599 834.02C352.239 837.32 356.887 838.199 359.899 836.458C363.044 834.64 364.047 831.227 364.253 827.816C364.323 826.656 364.231 825.491 363.978 824.356C363.916 824.069 363.854 823.771 363.77 823.489C363.138 821.999 362.982 821.628 363.302 822.376C363.462 822.802 363.472 822.751 363.332 822.222C362.563 818.522 357.602 817.57 355.106 820.05L355.108 820.049Z" fill="#171717"/>
</g>
<g opacity="0.1">
<path d="M350.681 834.862C343.105 835.381 335.393 836.891 328.581 840.653C322.154 844.203 316.175 849.553 311.095 854.791C305.795 860.207 301.147 866.224 297.243 872.72C293.27 879.42 288.284 888.165 288.296 896.12C288.309 904.936 300.219 908.008 304.714 900.567C308.183 894.824 309.267 887.627 312.432 881.6C315.227 876.131 318.654 871.01 322.643 866.341C326.763 861.723 331.318 857.511 336.243 853.763C341.684 849.528 346.707 844.701 352.243 840.629C354.463 838.995 354.059 834.629 350.681 834.864V834.862Z" fill="#171717"/>
</g>
<g opacity="0.1">
<path d="M626.778 844.101C620.046 840.842 610.851 841.657 603.808 843.564C595.518 845.78 587.749 849.618 580.951 854.855C574.235 860.217 568.256 866.443 563.172 873.373C558.119 879.973 551.487 887.929 549.172 895.995C546.857 904.061 557.412 910.26 563.272 904.205C568.319 898.992 571.317 891.393 575.347 885.344C579.239 879.374 583.797 873.865 588.933 868.924C593.969 864.095 599.716 860.067 605.972 856.98C608.876 855.656 611.876 854.554 614.946 853.685C618.439 852.633 622.23 852.938 625.752 851.949C629.097 851.011 630.209 845.762 626.778 844.101V844.101Z" fill="#171717"/>
</g>
<g opacity="0.1">
<path d="M633.855 729.082C616.492 725.068 595.676 733.891 584.176 747.023C571.009 762.059 566.32 784.386 571.23 803.579C574.06 814.645 590.699 809.953 588.276 798.879C584.976 783.792 588.194 769.509 597.145 757.029C606.313 744.248 619.191 738.385 633.855 734.144C636.255 733.444 636.447 729.681 633.855 729.082V729.082Z" fill="#171717"/>
</g>
<g opacity="0.1">
<path d="M354.109 747.205C345.662 743.167 337.496 748.756 331.49 754.621C324.506 761.351 320.282 770.443 319.645 780.121C319.162 789.461 321.909 798.683 327.425 806.235C332.725 813.429 342.935 823.128 352.649 822.372C359.019 821.872 364.831 812.986 358.582 808.049C353.304 803.878 347.199 802.577 342.729 797.093C338.887 792.537 336.752 786.784 336.69 780.824C336.866 774.823 338.823 769.01 342.311 764.124C346.006 758.949 351.626 755.986 354.967 750.475C355.282 749.927 355.369 749.276 355.209 748.664C355.048 748.053 354.653 747.528 354.109 747.205Z" fill="#171717"/>
</g>
<g opacity="0.1">
<path d="M357.314 564.85C354.427 568.492 353.122 572.818 351.402 577.104C349.323 582.284 347.549 587.57 345.802 592.868C342.363 603.268 338.802 614.268 337.268 625.133C336.836 628.201 341.211 630.917 342.837 627.481C347.383 617.875 350.386 607.181 353.237 596.955C354.644 591.914 355.961 586.837 357.086 581.725C358.224 576.554 359.956 571.068 359.475 565.745C359.389 564.79 358.067 563.901 357.315 564.85H357.314Z" fill="#171717"/>
</g>
<g opacity="0.1">
<path d="M361.191 607.011C355.58 614.331 352.868 623.811 350.259 632.553C347.836 640.672 343.938 651.258 345.551 659.684C346.397 664.105 352.129 663.858 354.29 660.827C356.735 657.396 357.477 652.816 358.507 648.771C359.693 644.115 360.817 639.445 361.879 634.761C363.814 626.168 366.344 617.128 365.82 608.261C365.665 605.644 362.663 605.086 361.191 607.007V607.011Z" fill="#171717"/>
</g>
<g opacity="0.1">
<path d="M367.514 651.101C362.614 655.625 360.269 661.55 357.791 667.629C355.255 673.849 352.478 680.398 351.604 687.076C350.978 691.853 358.841 693.886 360.776 689.56C363.41 683.672 364.783 677.183 366.992 671.105C369.182 665.077 371.817 659.568 372.392 653.123C372.627 650.505 369.186 649.554 367.511 651.101H367.514Z" fill="#171717"/>
</g>
<g opacity="0.1">
<path d="M367.069 683.344C361.883 692.543 358.217 702.519 356.213 712.887C354.577 721.349 366.899 723.171 367.964 714.477C369.189 704.964 371.534 695.629 374.952 686.667C376.689 682.048 369.417 679.145 367.069 683.344V683.344Z" fill="#171717"/>
</g>
</g>
<defs>
<linearGradient id="paint0_linear_385_970" x1="544.722" y1="329.9" x2="544.722" y2="430.77" gradientUnits="userSpaceOnUse">
<stop stop-color="#D89EFF"/>
<stop offset="1" stop-color="#8238E0"/>
</linearGradient>
<linearGradient id="paint1_linear_385_970" x1="397.202" y1="147.146" x2="397.202" y2="440.77" gradientUnits="userSpaceOnUse">
<stop stop-color="#D89EFF"/>
<stop offset="1" stop-color="#8238E0"/>
</linearGradient>
<clipPath id="clip0_385_970">
<rect width="628" height="887" fill="white" transform="translate(166 37)"/>
</clipPath>
</defs>
</svg>
